<?xml version="1.0" encoding="utf-8"?>
<!-- Generator: Adobe Illustrator 22.1.0, SVG Export Plug-In . SVG Version: 6.00 Build 0)  -->
<svg version="1.1" id="Layer_1" xmlns="http://www.w3.org/2000/svg" xmlns:xlink="http://www.w3.org/1999/xlink" x="0px" y="0px"
	 viewBox="0 0 267 250.3" style="enable-background:new 0 0 267 250.3;" xml:space="preserve">
<style type="text/css">
	.st0{fill:#3FC377;}
	.st1{fill:none;stroke:#3FC377;stroke-width:10;stroke-miterlimit:10;}
	.st2{fill:#FFFFFF;stroke:#3FC377;stroke-width:10;stroke-miterlimit:10;}
</style>
<title>import-products-white</title>
<g id="Layer_2_1_">
	<g id="Layer_1-2">
		<path class="st0" d="M102.1,58.7l-12-7.2c-0.3-0.2-0.5-0.2-0.8-0.2H61.8c-0.3,0-0.6,0.1-0.8,0.2l-12,7.2c-0.7,0.4-1,1.3-0.8,2
			l3.4,12.6c0.2,0.9,1.2,1.5,2.1,1.3l4.7-1.2v30.1c0,1,0.7,1.8,1.7,1.8c0,0,0,0,0,0H91c1,0,1.7-0.8,1.7-1.8c0,0,0,0,0,0l0,0V73.4
			l4.7,1.2c0.9,0.2,1.8-0.3,2.1-1.3l3.5-12.6C103.2,60,102.9,59.1,102.1,58.7z M75.5,62.1c-3.8-0.1-6.9-3.2-6.9-7.1v-0.1h13.8
			C82.5,58.8,79.5,62,75.5,62.1C75.6,62.1,75.6,62.1,75.5,62.1L75.5,62.1z"/>
		<path class="st0" d="M77.5,174.3h37c1.4,0,2.5,1.1,2.5,2.5v1c0,1.4-1.1,2.5-2.5,2.5h-37c-1.4,0-2.5-1.1-2.5-2.5v-1
			C75,175.4,76.1,174.3,77.5,174.3z"/>
		<path class="st0" d="M93.1,157.5h21.4c1.4,0,2.5,1.1,2.5,2.5v1c0,1.4-1.1,2.5-2.5,2.5H93.1c-1.4,0-2.5-1.1-2.5-2.5v-1
			C90.6,158.6,91.7,157.5,93.1,157.5z"/>
		<path class="st0" d="M36.7,174.3h21.4c1.4,0,2.5,1.1,2.5,2.5v1c0,1.4-1.1,2.5-2.5,2.5H36.7c-1.4,0-2.5-1.1-2.5-2.5v-1
			C34.2,175.4,35.3,174.3,36.7,174.3z"/>
		<path class="st1" d="M17,28.3h112c6.6,0,12,5.4,12,12v154c0,6.6-5.4,12-12,12H17c-6.6,0-12-5.4-12-12v-154
			C5,33.7,10.4,28.3,17,28.3z"/>
		<path class="st0" d="M35.5,123.9h79c1.4,0,2.5,1.1,2.5,2.5v1c0,1.4-1.1,2.5-2.5,2.5h-79c-1.4,0-2.5-1.1-2.5-2.5v-1
			C33,125,34.1,123.9,35.5,123.9z"/>
		<path class="st0" d="M35.5,140.7h79c1.4,0,2.5,1.1,2.5,2.5v1c0,1.4-1.1,2.5-2.5,2.5h-79c-1.4,0-2.5-1.1-2.5-2.5v-1
			C33,141.8,34.1,140.7,35.5,140.7z"/>
		<path class="st0" d="M35.5,157.5h37c1.4,0,2.5,1.1,2.5,2.5v1c0,1.4-1.1,2.5-2.5,2.5h-37c-1.4,0-2.5-1.1-2.5-2.5v-1
			C33,158.6,34.1,157.5,35.5,157.5z"/>
		<path class="st2" d="M138,67.3h112c6.6,0,12,5.4,12,12v154c0,6.6-5.4,12-12,12H138c-6.6,0-12-5.4-12-12v-154
			C126,72.7,131.4,67.3,138,67.3z"/>
		<path class="st0" d="M220.1,99.7l-12-7.2c-0.3-0.2-0.5-0.2-0.9-0.2h-27.5c-0.3,0-0.6,0.1-0.9,0.2l-12,7.2c-0.7,0.4-1,1.2-0.8,2
			l3.4,12.6c0.2,0.9,1.2,1.5,2.1,1.3l4.7-1.2v30.1c0,1,0.7,1.8,1.7,1.8c0,0,0,0,0,0H209c1,0,1.7-0.8,1.7-1.8c0,0,0,0,0,0l0,0v-30
			l4.7,1.2c0.9,0.2,1.8-0.3,2.1-1.3l3.4-12.6C221.2,101,220.9,100.1,220.1,99.7z M193.5,103.1c-3.8-0.1-6.9-3.2-6.9-7.1v-0.1h13.8
			C200.5,99.8,197.5,103,193.5,103.1C193.6,103.1,193.6,103.1,193.5,103.1L193.5,103.1z"/>
		<path class="st0" d="M155.5,162.3h79c1.4,0,2.5,1.1,2.5,2.5v1c0,1.4-1.1,2.5-2.5,2.5h-79c-1.4,0-2.5-1.1-2.5-2.5v-1
			C153,163.4,154.1,162.3,155.5,162.3z"/>
		<path class="st0" d="M155.5,179.3h79c1.4,0,2.5,1.1,2.5,2.5v1c0,1.4-1.1,2.5-2.5,2.5h-79c-1.4,0-2.5-1.1-2.5-2.5v-1
			C153,180.4,154.1,179.3,155.5,179.3z"/>
		<path class="st0" d="M212.1,195.5h21.4c1.4,0,2.5,1.1,2.5,2.5v1c0,1.4-1.1,2.5-2.5,2.5h-21.4c-1.4,0-2.5-1.1-2.5-2.5v-1
			C209.6,196.6,210.7,195.5,212.1,195.5z"/>
		<path class="st0" d="M155.5,195.5h37c1.4,0,2.5,1.1,2.5,2.5v1c0,1.4-1.1,2.5-2.5,2.5h-37c-1.4,0-2.5-1.1-2.5-2.5v-1
			C153,196.6,154.1,195.5,155.5,195.5z"/>
		<path class="st0" d="M197.5,210.3h37c1.4,0,2.5,1.1,2.5,2.5v1c0,1.4-1.1,2.5-2.5,2.5h-37c-1.4,0-2.5-1.1-2.5-2.5v-1
			C195,211.4,196.1,210.3,197.5,210.3z"/>
		<path class="st0" d="M155.5,210.3h21.4c1.4,0,2.5,1.1,2.5,2.5v1c0,1.4-1.1,2.5-2.5,2.5h-21.4c-1.4,0-2.5-1.1-2.5-2.5v-1
			C153,211.4,154.1,210.3,155.5,210.3z"/>
		<path class="st0" d="M223.6,82.8l24.5-28c1.3-1.5,1.1-3.7-0.3-4.9c-0.6-0.6-1.5-0.9-2.3-0.9h-14V3.5c0-1.9-1.6-3.5-3.5-3.5h-14
			c-1.9,0-3.5,1.6-3.5,3.5V49h-14c-1.9,0-3.5,1.6-3.5,3.5c0,0.9,0.3,1.7,0.9,2.3l24.5,28"/>
	</g>
</g>
</svg>
