<svg id="Layer_1" data-name="Layer 1" xmlns="http://www.w3.org/2000/svg" viewBox="0 0 333.87 22.77"><defs><style>.cls-1{fill:#353535;}.cls-2{fill:#00c3f3;}.cls-3{fill:#05c66e;}.cls-4{fill:#01c5f8;}</style></defs><title>Untitled-1</title><path class="cls-1" d="M141.54,215.84v13.6H135.1V217c0-2.68-1.27-4.42-3.86-4.42-3.2,0-4.47,2.87-4.47,5.41v11.48h-6.45V217c0-2.68-1.27-4.42-3.86-4.42-3.15,0-4.42,2.87-4.42,5.41v11.48h-6.45V207.23l5-.19a18.57,18.57,0,0,1,.8,4.66h0.14a7,7,0,0,1,7-4.7,7.58,7.58,0,0,1,7.62,5,7,7,0,0,1,7.15-5C138.72,207,141.54,210.75,141.54,215.84Z" transform="translate(-86.52 -206.94)"/><path class="cls-1" d="M167.51,218.33c0,6.68-4.66,11.39-11.67,11.39s-11.72-4.7-11.72-11.39,4.66-11.39,11.72-11.39S167.51,211.65,167.51,218.33Zm-6.54,0c0-3.58-2-6.12-5.13-6.12s-5.18,2.54-5.18,6.12,2,6.12,5.18,6.12S161,222,161,218.33Z" transform="translate(-86.52 -206.94)"/><path class="cls-1" d="M185.39,207.6l-1.69,6.21a4.29,4.29,0,0,0-2.54-.8c-2.45,0-4.56,2-4.56,5.69v10.73h-6.45V207.23l5-.19a21.39,21.39,0,0,1,.8,4.89h0.19c0.85-2.82,2.59-5,5.93-5A8.06,8.06,0,0,1,185.39,207.6Z" transform="translate(-86.52 -206.94)"/><path class="cls-2" d="M203.88,222.28l3.06,3.53c-1.51,2-4.75,3.9-9.55,3.9-7.48,0-12-4.7-12-11.39s4.47-11.39,11.34-11.39c6.49,0,10.21,4.42,10.21,10.49a13.19,13.19,0,0,1-.19,2.35h-15c0.56,3,2.64,5,6.3,5A7.24,7.24,0,0,0,203.88,222.28Zm-12-5.84h9.27c0-2.63-1.65-4.61-4.33-4.61S192.3,213.48,191.83,216.45Z" transform="translate(-86.52 -206.94)"/><path class="cls-3" d="M229.71,214.75a8.69,8.69,0,0,1-.14,1.65l-5.69.33a3.73,3.73,0,0,0,.09-1,3.39,3.39,0,0,0-3.67-3.53c-2.92,0-4.89,2.4-4.89,6,0,3.76,1.93,6.26,5.74,6.26a7.74,7.74,0,0,0,6.07-2.59l3.15,4c-1.41,1.79-4.66,3.81-9.65,3.81-7.43,0-11.86-4.7-11.86-11.29,0-6.82,4.71-11.48,11.53-11.48C226.27,206.94,229.71,210.42,229.71,214.75Z" transform="translate(-86.52 -206.94)"/><path class="cls-3" d="M255.07,218.33c0,6.68-4.66,11.39-11.67,11.39s-11.72-4.7-11.72-11.39,4.66-11.39,11.72-11.39S255.07,211.65,255.07,218.33Zm-6.54,0c0-3.58-2-6.12-5.13-6.12s-5.18,2.54-5.18,6.12,2,6.12,5.18,6.12S248.53,222,248.53,218.33Z" transform="translate(-86.52 -206.94)"/><path class="cls-3" d="M294,215.84v13.6h-6.45V217c0-2.68-1.27-4.42-3.86-4.42-3.2,0-4.47,2.87-4.47,5.41v11.48h-6.45V217c0-2.68-1.27-4.42-3.86-4.42-3.15,0-4.42,2.87-4.42,5.41v11.48H258V207.23l5-.19a18.57,18.57,0,0,1,.8,4.66H264a7,7,0,0,1,7-4.7,7.58,7.58,0,0,1,7.62,5,7,7,0,0,1,7.15-5C291.15,207,294,210.75,294,215.84Z" transform="translate(-86.52 -206.94)"/><path class="cls-3" d="M333.68,215.84v13.6h-6.45V217c0-2.68-1.27-4.42-3.86-4.42-3.2,0-4.47,2.87-4.47,5.41v11.48h-6.45V217c0-2.68-1.27-4.42-3.86-4.42-3.15,0-4.42,2.87-4.42,5.41v11.48h-6.45V207.23l5-.19a18.57,18.57,0,0,1,.8,4.66h0.14a7,7,0,0,1,7-4.7,7.58,7.58,0,0,1,7.62,5,7,7,0,0,1,7.15-5C330.86,207,333.68,210.75,333.68,215.84Z" transform="translate(-86.52 -206.94)"/><path class="cls-3" d="M354.9,222.28l3.06,3.53c-1.51,2-4.75,3.9-9.55,3.9-7.48,0-12-4.7-12-11.39s4.47-11.39,11.34-11.39c6.49,0,10.21,4.42,10.21,10.49a13.19,13.19,0,0,1-.19,2.35h-15c0.56,3,2.64,5,6.3,5A7.24,7.24,0,0,0,354.9,222.28Zm-12-5.84h9.27c0-2.63-1.65-4.61-4.33-4.61S343.33,213.48,342.85,216.45Z" transform="translate(-86.52 -206.94)"/><path class="cls-3" d="M376.3,207.6l-1.69,6.21a4.29,4.29,0,0,0-2.54-.8c-2.45,0-4.56,2-4.56,5.69v10.73h-6.45V207.23l5-.19a21.48,21.48,0,0,1,.8,4.89h0.19c0.85-2.82,2.59-5,5.93-5A8.06,8.06,0,0,1,376.3,207.6Z" transform="translate(-86.52 -206.94)"/><path class="cls-3" d="M396.82,214.75a8.65,8.65,0,0,1-.14,1.65l-5.69.33a3.68,3.68,0,0,0,.09-1,3.39,3.39,0,0,0-3.67-3.53c-2.92,0-4.89,2.4-4.89,6,0,3.76,1.93,6.26,5.74,6.26a7.73,7.73,0,0,0,6.07-2.59l3.15,4c-1.41,1.79-4.66,3.81-9.65,3.81-7.44,0-11.86-4.7-11.86-11.29,0-6.82,4.71-11.48,11.53-11.48C393.38,206.94,396.82,210.42,396.82,214.75Z" transform="translate(-86.52 -206.94)"/><path class="cls-3" d="M417.28,222.28l3.06,3.53c-1.51,2-4.75,3.9-9.55,3.9-7.48,0-12-4.7-12-11.39s4.47-11.39,11.34-11.39c6.49,0,10.21,4.42,10.21,10.49a13.19,13.19,0,0,1-.19,2.35h-15c0.56,3,2.64,5,6.3,5A7.24,7.24,0,0,0,417.28,222.28Zm-12-5.84h9.27c0-2.63-1.65-4.61-4.33-4.61S405.71,213.48,405.24,216.45Z" transform="translate(-86.52 -206.94)"/><polygon class="cls-4" points="0 21.37 8.64 10.87 0.02 0.4 7.25 0.4 15.92 10.87 7.25 21.37 0 21.37"/></svg>